<!-- Generator: Adobe Illustrator 22.0.1, SVG Export Plug-In  -->
<svg version="1.1"
	 xmlns="http://www.w3.org/2000/svg" xmlns:xlink="http://www.w3.org/1999/xlink" xmlns:a="http://ns.adobe.com/AdobeSVGViewerExtensions/3.0/"
	 x="0px" y="0px" width="403.9px" height="403.9px" viewBox="0 0 403.9 403.9"
	 style="overflow:scroll;enable-background:new 0 0 403.9 403.9;" xml:space="preserve">
<style type="text/css">
	.st0{clip-path:url(#SVGID_2_);}
	.st1{fill:none;}
	.st2{clip-path:url(#SVGID_4_);}
</style>
<defs>
</defs>
<g>
	<defs>
		<circle id="SVGID_1_" cx="201.9" cy="201.9" r="201.9"/>
	</defs>
	<clipPath id="SVGID_2_">
		<use xlink:href="#SVGID_1_"  style="overflow:visible;"/>
	</clipPath>
	<g class="st0">
		<path d="M179.8,135.9c0,0-1.5-2.8,5.1-5.9c6.6-3.1,22.8-7.8,30.8-5.4c8,2.4,7.7,3.1,8.2,5.2s-22.2-0.7-27.4,1.5
			c-5.2,2.2-11,2.9-12.7,3.9C182,136.2,180.7,136.4,179.8,135.9z"/>
		<path d="M250.3,134.9c0,0,7.2-6.1,13.9-5.9c6.7,0.2,13.7-0.7,17.5,1.6c3.8,2.3,2.2-3.9-0.8-5.4c-3-1.5-13.2-5.5-20.7-1.5
			c-7.5,4-11.7,8.2-10.1,9.3s1.8,0.3,1.8,0.3"/>
		<g>
			<path class="st1" d="M208.1,212.4c-1.8,10.5,9.4,23.4,14.3,27.6c0.5,0.4,0.8,0.8,1.2,1c7.4,3.5,12.2,0.5,16.1-1.3
				c3.9-1.8,2.6-7.8,2.6-7.8s-4.4-3.5-4.4-7.4s17.4-2.2,18.3,0.5c0.8,2.6-2.7,6.1-4.4,6.5s-0.4,7.4,4.4,9.6c4.8,2.2,7.4-0.9,11.7-7
				c4.4-6.1,4.4-17.4,5.2-25.2c0.2-2-0.2-3.7-1-5.1c-20.1,7.9-61.4,11.2-61.4,11.2S209.5,213.9,208.1,212.4z"/>
			<path d="M292,193.4c-0.6,0.3-7.3,4-10.8,5c-1.8,2-5,3.8-9.1,5.4c0.8,1.4,1.2,3.1,1,5.1c-0.8,7.8-0.8,19.1-5.2,25.2
				c-4.4,6.1-7,9.1-11.7,7c-4.8-2.2-6.1-9.1-4.4-9.6s5.2-3.9,4.4-6.5c-0.8-2.6-18.3-4.4-18.3-0.5s4.4,7.4,4.4,7.4s1.3,6.1-2.6,7.8
				c-3.9,1.8-8.7,4.8-16.1,1.3c-0.4-0.2-0.8-0.6-1.2-1c-4.9-4.2-16.1-17.1-14.3-27.6c-0.5-0.5-1.1-1.1-1.6-1.6
				c-1.6,0.3-7.9-4.3-12.9-5.9c-5.9-2-15.2-9.1-19.1-10.2c-3.9-1.1-14.8-31.3-15.5-34.1c-0.7-2.8-8.6-3.5-8.3-0.5
				c0.5,3.9,0.7,5.2,3.3,11.3c2.6,6.1,2,18.3,2.6,31.9s6.1,23,11.3,30.8c5.2,7.8,11.3,8.5,11.3,8.5s43.2,20.4,48.9,22.8
				s18.3,2.2,18.3,2.2c22.8-0.7,21.7-6.5,24.3-10.4c2.6-3.9,5.4-15.2,7-23.3c1.5-8,8.3-23.7,10.2-26.3
				C289.8,205.2,292.9,193,292,193.4z"/>
			<path d="M208.2,219.7c0.1-0.5,0.2-0.9,0.3-1.4c3.5-11.7,5.2-13.5,8.3-13.5c3.1,0,28.2-2.2,38.7-0.8c7.8,1,14.3,2.9,16.8,7.1
				c4.1-1.6,7.3-3.4,9.1-5.4c-1.3,0.4-2.2,0.4-2-0.4c0.7-2.8-6.3-8.9-8.9-10.4c-2.6-1.5-13.2-1.5-14.5-0.7
				c-1.3,0.8-11.5-0.2-16.5-0.5c-5-0.2-27.2,4.8-30.4,6.5c-3.3,1.8-2.4,14.3-2,17.1c0.1,0.4-0.1,0.6-0.4,0.7
				C207.1,218.6,207.7,219.2,208.2,219.7z"/>
		</g>
		<path d="M265.7,136.3c-4.3-1.8-6.9,0.1-7.8,2.3c-0.8,2.2,2.2,4,2.2,4c2.7,0.4,6.7,0.8,6.9-0.1C267.2,141.4,270.1,138,265.7,136.3z
			 M260.4,139.2c-0.5,0-0.8-0.5-0.8-1.2c0-0.7,0.4-1.2,0.8-1.2s0.8,0.5,0.8,1.2C261.3,138.7,260.9,139.2,260.4,139.2z"/>
		<path d="M230.3,178.6c0,0,11.1-2.5,13.9,2.3c0,0-2-0.8-5.2-1.2C235.7,179.4,236.6,180.4,230.3,178.6z"/>
		<path d="M254.4,180.1c0,0,3.5-3.6,3.9-2.6c0.5,1-3.5,5.2-4.4,4.2"/>
		<path d="M244.6,142.6c5.1,10.6,10.2,21.1,15.2,31.8"/>
		<path d="M245.7,141.7c0,0,13.6,32.6,14.1,33.4C260.2,176,258.1,163.4,245.7,141.7z"/>
		<g>
			<path d="M212.5,138.4c-6.1-3-10,0.7-10.6,2.1c-0.5,1.4,1.6,5.7,1.6,5.7c3.9,1,4.6,0,8.3-0.7C215.5,145,212.5,138.4,212.5,138.4z
				 M204.5,142.6c-0.5,0-1-0.7-1-1.7c0-1,0.5-1.7,1-1.7c0.5,0,1,0.7,1,1.7C205.5,141.8,205.1,142.6,204.5,142.6z"/>
			<path d="M203.7,147.2c-3.9,0-8.6-0.2-14.1-0.9l-1.3-0.2l1-0.8c0.8-0.5,18.7-13.3,26-7.2c6,5,5.7,5.8,5.5,6.3
				c-0.1,0.3-0.4,0.4-0.6,0.5C219.6,145.3,214.7,147.2,203.7,147.2z M191.1,145.5c19.8,2.2,28.1-1.1,28.9-1.5
				c-0.2-0.4-1.1-1.7-5.1-5.1C209,134.2,195.1,142.8,191.1,145.5z M220.2,143.9L220.2,143.9C220.2,143.9,220.2,143.9,220.2,143.9z"
				/>
		</g>
		<path d="M258,143.5c-2.7,0-5.6-0.1-8.4-0.4l-0.4,0v-1.5l0.2-0.1c0.3-0.3,7.8-7.4,15.9-6.5c3.9,0.4,7.2,2.6,9.9,6.6l0.4,0.6
			l-0.8,0.1C274.6,142.2,267,143.5,258,143.5z M250.2,142.1c10.1,1,20.7-0.3,23.6-0.8c-2.4-3.3-5.3-5.2-8.7-5.5
			c-7-0.8-13.8,5.1-14.9,6.1V142.1z"/>
		<path d="M133.3,149.7c0,0-5.4-6.7-7.6-4.8c-2.2,2-4.8,14.5,0,21.5s-2.2-11.3,0.5-15.2C128.8,147.4,130.5,149.5,133.3,149.7z"/>
		<path d="M138.8,159.7c0,0-10,2.2-3.7,12.2c6.3,10-5.9,1.8-5.2-3.8s4.8-12.3,7.4-11.7C139.9,156.9,138.8,159.7,138.8,159.7z"/>
		<g>
			<path d="M263.3,213.8c-3.2,0.9-6.4,1.4-9.6,1.8c-1.6,0.2-3.2,0.3-4.8,0.3c-0.8,0-1.6,0-2.5,0c-0.8,0-1.6,0-2.3,0
				c-1.5,0-2.9,0.1-4.6,0.2c-0.9,0-1.7,0-2.5,0c-0.8,0-1.6,0-2.4-0.1c-1.6-0.1-3.2-0.1-4.8-0.3c-1.6-0.1-3.2-0.4-4.8-0.5
				c1.5-0.7,3.1-1,4.7-1.5c1.6-0.4,3.2-0.6,4.8-0.9c0.8-0.1,1.6-0.2,2.4-0.3c0.8-0.1,1.6-0.2,2.3-0.3c0.7-0.1,1.5-0.2,2.4-0.3
				c0.9-0.1,1.7-0.1,2.6-0.1c0.8,0,1.7,0.1,2.5,0.1l2.3,0.1c1.6,0.1,3.2,0.2,4.8,0.3C256.8,212.8,260,213.1,263.3,213.8z"/>
		</g>
		<path d="M291,152.2c-2.4-6.1-3.2-10.7-2.5-14.3c0.7-3.5-2-9.1-3.6-12.5c-0.2-0.5-0.4-0.9-0.6-1.2c-0.8-1.8-0.3-5.3-0.1-6.5l0-0.2
			l0-0.2c-1.6-19.6-2.4-23-2.8-24.6c-0.1-0.6-0.2-0.9-0.2-1.6c-0.2-3.3-11.6-32.4-34.1-43.1c-22.3-10.6-25.3-11.4-47.1-11.2
			c-22,0.1-47.1,18.9-48.2,19.7c-0.9,0.7-21.5,17.8-23.8,35.1c-2,14.9-0.4,40.1,0,46.6c-1.3,0.3-3.1,1.1-4.8,3.4
			c-3.1,4.1-2.2,17.1-1.6,19.6c0.4,1.6,1.3,3.5,2.3,5.5c0.9,1.8,1.8,3.6,2.2,5.1c0.4,1.4,0.5,1.9,0.6,2.6c0.1,1,0.3,2,1.2,5.3
			c1.4,5.1,8.9,9.5,13.9,12.3c1.2,0.7,2.2,1.3,2.7,1.6c1.2,0.9,2.7,6.4,3.8,10.4c1,3.6,2,7.3,3.1,10.2c2.7,6.7,4.7,18.6,4.7,18.7
			l0.1,0.5l0.4,0.4c0.1,0.1,0.1,0.1,0.2,0.2c0.3-0.8,0.9-1.8,2.1-2.7c-0.6-3.2-2.3-12.3-4.7-18.2c-1.1-2.7-2.1-6.3-3-9.8
			c-1.8-6.6-2.9-10.7-4.9-12.1c-0.6-0.5-1.7-1-2.9-1.8c-4-2.3-11.4-6.6-12.5-10.6c-0.9-3.1-1-4.1-1.2-5c-0.1-0.7-0.2-1.4-0.7-3
			c-0.5-1.8-1.5-3.7-2.4-5.6c-0.9-1.8-1.8-3.6-2.1-4.9c-0.7-3-1.1-14.4,1-17.1c2-2.5,3.7-2.4,3.8-2.4l1.9,0.3l-0.2-1.9
			c0-0.3-2.4-30.9-0.1-47.4c2.2-16.1,22.5-33,22.7-33.1c0.3-0.2,25.4-18.9,46.4-19.1c21.4-0.1,23.9,0.5,45.8,10.9
			c21,10,32.2,37.6,32.4,40.6c0.1,1,0.2,1.5,0.3,2.1c0.4,1.6,1.1,4.8,2.7,24c-0.2,1.1-0.9,5.3,0.3,8.1c0.2,0.4,0.4,0.8,0.6,1.3
			c1.2,2.6,3.8,8.1,3.3,10.7c-0.8,4.1,0.1,9.4,2.7,16c2.6,6.5,5.1,20.1,3.4,27.5c-0.9,4-0.7,7-0.4,9.7c0.2,2.6,0.4,4.6-0.6,6.6
			c-0.3,0.7-0.8,1.7-1.5,3c-4,8.2-12.3,25.2-13.2,32c-1.4,12.2-5.6,27.5-12.9,30c-9.4,3.3-23.6,5.4-32.7,2.3
			c-9.2-3.2-44.3-20.4-53.3-25.1c-1.3-0.7-2.4-1.2-3.5-1.6l0.8,3.6c0.4,0.2,0.9,0.4,1.3,0.6c9,4.8,44.3,22.1,53.7,25.3
			c3.4,1.2,7.5,1.7,11.8,1.7c7.9,0,16.5-1.7,22.9-4c10.9-3.8,14.1-25.9,14.9-32.5c0.8-6.3,9.2-23.6,12.9-31.1c0.6-1.3,1.1-2.4,1.5-3
			c1.3-2.8,1.1-5.4,0.8-8.1c-0.2-2.5-0.4-5.3,0.4-8.8C296.4,173.3,293.7,159,291,152.2z"/>
		<path d="M390.5,278.2c-4.9-2.3-9.3-4.2-12.3-5.5c-12.4-5.2-24.8-16.3-37.8-20.9c-13-4.6-56.7-22.2-63.2-24.8
			c-6.5-2.6,2,61.9-9,79.9c-0.8,1.3-1.5,2.4-2.1,3.3c-8.9,14.8-17.4,33.5-24.6,44.1c-4.8,9.5-9,17.6-11.1,20.6
			c-6.3,9.1-14.5,7.2-28.4,0s-27.8-33.9-47.4-80.2s3.1-62.1,3.1-62.1c-0.2-11.2-19.4,19.7-34.6,32.1c-15.2,12.4-66.3,61.9-84.6,76.9
			c-10.1,8.3-15.7,36.2-17.7,62.1h369.7V278.2z"/>
	</g>
</g>
</svg>
