<!-- Generator: Adobe Illustrator 22.0.1, SVG Export Plug-In  -->
<svg version="1.1"
	 xmlns="http://www.w3.org/2000/svg" xmlns:xlink="http://www.w3.org/1999/xlink" xmlns:a="http://ns.adobe.com/AdobeSVGViewerExtensions/3.0/"
	 x="0px" y="0px" width="250px" height="278px" viewBox="0 0 250 278" style="overflow:scroll;enable-background:new 0 0 250 278;"
	 xml:space="preserve">
<style type="text/css">
	.st0{fill:#FBFBFB;}
</style>
<defs>
</defs>
<g>
	<path class="st0" d="M0,129c3.7,0,7.3-0.2,11,0c6.9,0.4,13.7,0.2,20.8,2.2c7.3,2.1,16-0.6,24.1-1c15.2-0.7,30.4-1.3,46.1-1.9
		c-3.8,9.7-13.7,16.6-22.6,16.6c-26.5,0-52.9,0-79.4,0C0,139.7,0,134.3,0,129z"/>
	<path class="st0" d="M0,16c29.4,0,58.9-0.1,88.3,0.1c2.9,0,6.4,1.7,8.7,3.6c3.2,2.7,5.7,6.3,9.4,10.7c-3.1,0.3-4.7,0.7-6.4,0.7
		c-10.6,0-21.3,0.4-31.9-0.1c-6.1-0.3-12-2.4-18.1-3.1c-5.4-0.6-10.9-0.6-16.4-0.7c-1.1,0-2.8,0.2-3.2,0.9c-2.5,3.8-6.3,3-9.9,3
		C13.6,31.1,6.8,31,0,31C0,26,0,21,0,16z"/>
	<path class="st0" d="M0,3c16.8,0,33.7-0.6,50.4,0.2c9.4,0.4,18.6,2.9,27.9,4.8c2.6,0.5,5,2.2,7.5,3.4c-0.1,0.5-0.2,1-0.3,1.5
		C57,13,28.5,13,0,13C0,9.7,0,6.3,0,3z"/>
	<path class="st0" d="M196,0c4.5,1,9.1,2,13.5,3.1c6.1,1.6,11.5,4.5,16.4,8.3c-0.1,0.4-0.3,0.8-0.4,1.1c-23.7,0-47.4,0-71.1,0
		c4.8-5.5,11-7.9,17.5-9.8c3.7-1.1,7.4-1.9,11.1-2.8C187.3,0,191.7,0,196,0z"/>
	<path class="st0" d="M0,148c26.1,0,52.1,0,78.2,0c0.1,0.4,0.2,0.8,0.3,1.2c-2.4,0.9-4.7,2.2-7.1,2.6c-9.3,1.6-18.6,3.6-28,4
		C29,156.5,14.5,156,0,156C0,153.3,0,150.7,0,148z"/>
	<path class="st0" d="M0,260c8.1,0.7,16.2,1.8,24.4,1.8c5,0,10.1-2,15.2-2.5c8.2-0.8,16.4-1.2,24.6-1.7c-0.3,7-5,11.4-11.1,11.4
		c-17.7,0.1-35.3,0-53,0C0,266,0,263,0,260z"/>
	<path class="st0" d="M250,69c-8.1,0-16.3-0.2-24.4,0.1c-4.4,0.1-7-0.9-7-5.9c0-3.1-0.7-6.2-1.2-10.2c5.8,0,10.8,0,15.9,0
		c1.3,0,2.7,0,4,0c9.9,0,9.9,0,12.7,9C250,64.3,250,66.7,250,69z"/>
	<path class="st0" d="M250,95c-0.3,0.8-0.7,1.5-0.8,2.3c-1.5,11.4-1.3,9.5-11.2,9.7c-6.6,0.1-13.2,0-20.5,0
		c0.7-5.1,0.9-9.5,1.9-13.5c0.3-1.2,3-2.3,4.7-2.4c8.6-0.2,17.3-0.1,25.9-0.1C250,92.3,250,93.7,250,95z"/>
	<path class="st0" d="M250,88c-8.6,0-17.3,0-25.9,0.1c-3.6,0-5.5-1-4.4-5c0.3-1.3,0.3-2.6,0.2-4c-0.5-7.1-0.5-7.1,6.8-7.1
		c7.8,0,15.6,0,23.4,0C250,77.3,250,82.7,250,88z"/>
	<path class="st0" d="M0,34c8,0,15.9,0.1,23.9,0c3.9-0.1,5.2,1.5,5.3,5.3c0.2,10.7,0.3,10.7-10.2,10.7C12.6,50,6.3,50,0,50
		C0,44.7,0,39.3,0,34z"/>
	<path class="st0" d="M0,53c8,0,15.9,0.1,23.9,0c3.9-0.1,5.2,1.5,5.3,5.3C29.3,69,29.4,69,18.9,69C12.6,69,6.3,69,0,69
		C0,63.7,0,58.3,0,53z"/>
	<path class="st0" d="M0,110c8,0,15.9,0.1,23.9-0.1c3.9-0.1,5.2,1.5,5.2,5.3C29.3,126,29.4,126,18.9,126c-6.3,0-12.6,0-18.9,0
		C0,120.7,0,115.3,0,110z"/>
	<path class="st0" d="M0,91c8,0,15.9,0.1,23.9,0c3.9-0.1,5.2,1.5,5.2,5.3C29.3,107,29.4,107,18.9,107c-6.3,0-12.6,0-18.9,0
		C0,101.7,0,96.3,0,91z"/>
	<path class="st0" d="M0,72c8,0,15.9,0.1,23.9,0c3.9-0.1,5.2,1.5,5.2,5.3C29.3,88,29.4,88,18.9,88C12.6,88,6.3,88,0,88
		C0,82.7,0,77.3,0,72z"/>
	<path class="st0" d="M0,271c17.4,0,34.8,0,52.2,0c-5.9,5.1-13.4,4.9-20.2,7c-10.7,0-21.3,0-32,0C0,275.7,0,273.3,0,271z"/>
	<path class="st0" d="M109,278c-4.9-1.8-9.7-3.6-14.6-5.4c0.1-0.4,0.2-0.9,0.3-1.3c16.1,0,32.2,0,48.3,0c0.2,0.4,0.3,0.7,0.5,1.1
		c-4.8,1.8-9.7,3.7-14.5,5.5C122.3,278,115.7,278,109,278z"/>
	<path class="st0" d="M198,278c-4-1.8-7.9-3.5-11.9-5.3c0.1-0.4,0.2-0.8,0.3-1.3c14.2,0,28.5,0,42.7,0c0.2,0.3,0.3,0.6,0.5,0.9
		c-4.5,1.9-9.1,3.8-13.6,5.6C210,278,204,278,198,278z"/>
	<path class="st0" d="M238.3,129.3c-2.6,10-9.5,15.8-18.4,15.8c-21.5,0-42.9,0-64.4,0c-9.6,0-15.8-5.1-18.6-15.7
		c1.9-0.1,3.6-0.4,5.3-0.4c6.5,0,13-0.4,19.5,0.1c5.9,0.4,11.8,1.2,17.5,2.6c7.4,1.8,14.5,1.8,21.5-1.3c0.9-0.4,1.8-1.1,2.8-1.1
		C214.9,129.2,226.4,129.3,238.3,129.3z"/>
	<path class="st0" d="M240.5,30.7c-2.3,0.2-4,0.4-5.8,0.4c-7.2,0-14.3,0.4-21.5-0.1c-5-0.3-10-1.5-15-2.7c-7.3-1.8-14.4-2-21.5,0.8
		c-2.9,1.1-6,1.9-9.1,2c-9.8,0.2-19.5,0.1-29.4,0.1c1.8-9.2,8.8-15.1,17.3-15.1c22.1,0,44.3,0,66.4,0
		C232.1,16,236.7,19.5,240.5,30.7z"/>
	<path class="st0" d="M241.4,231.2c-8.3,0-16.3,0.9-24-0.3c-6-1-11.6-1.2-17.7-0.4c-8.4,1.1-16.9,1.1-25.3,1.3
		c-4,0.1-3.4-3.3-3.5-5.9c-0.1-2.8,0.6-5,4.1-4.9c5.8,0,11.7,0,17.5,0c12.2,0,24.3,0,36.5,0C236.7,221,238.8,222.6,241.4,231.2z"/>
	<path class="st0" d="M85.7,258.3c7.7,0.3,15.3-2.1,22.7,1.9c7.7,4.1,15.5,4.1,23.3-0.2c6.8-3.7,14.2-1.4,21.3-1.6
		c-0.2,6.7-3.9,10.6-9.7,10.6c-15.8,0.1-31.6,0-47.4,0C89.1,269,86.5,266.5,85.7,258.3z"/>
	<path class="st0" d="M240.6,258.1c-2.5,8.4-5.7,10.9-12.8,10.9c-13.3,0-26.6,0-39.9,0c-7.6,0-9.9-1.8-12.3-10.8
		c8,0.2,15.9-2,23.4,1.5c6,2.8,11.8,3.1,17.7,0.2C224.3,256.2,232.2,258.7,240.6,258.1z"/>
	<path class="st0" d="M221.9,148.5c-16.2,14.2-53,14.2-69.8,0C175.5,148.5,198.4,148.5,221.9,148.5z"/>
	<path class="st0" d="M71.3,34.4c3.3-0.1,5.9-0.3,8.4-0.4c7.3,0,14.7,0.2,22-0.1c4.6-0.2,7.3,1.5,8.6,5.8c0.1,0.5,0.4,0.9,0.5,1.4
		c3.2,8.4,2.8,8.9-6.1,8.9c-6.3,0-12.7-0.1-19,0c-3.2,0.1-5.2-1-6.8-3.9C77,42.4,74.4,39,71.3,34.4z"/>
	<path class="st0" d="M68.7,125.6c3.6-4.7,7-9.3,10.5-13.8c0.6-0.7,1.6-1.5,2.4-1.5c9.7-0.1,19.4-0.1,30.6-0.1
		c-2.6,5.4-4.5,9.9-6.9,14.1c-0.5,1-2.6,1.5-3.9,1.6c-10.5,0.1-20.9,0.1-31.4,0C69.6,126,69,125.6,68.7,125.6z"/>
	<path class="st0" d="M168.1,125.9c-10.8,0-20.9,0.2-31-0.2c-1.6-0.1-3.7-2.6-4.4-4.4c-4.3-11-4-11.3,7.6-11.3
		c5.5,0,11-0.1,16.5,0.1c1.6,0.1,3.8,0.9,4.6,2.1C163.7,116.3,165.6,120.7,168.1,125.9z"/>
	<path class="st0" d="M209.3,34.2c10.9,0,20.8-0.1,30.7,0.1c1.2,0,3,1.2,3.5,2.3c1.6,3.9,2.8,8,4.4,12.9c-2.8,0.2-4.7,0.4-6.6,0.5
		c-6.8,0-13.6,0.2-20.4-0.1c-1.7-0.1-4.2-0.9-5-2.2C213.4,43.8,211.7,39.5,209.3,34.2z"/>
	<path class="st0" d="M87.7,193.9c1.8-8.4,3.5-9.9,10.3-9.9c15.3,0,30.6,0.1,45.9-0.1c4.7-0.1,7.1,2,8.3,6.2c0.7,2.6-0.1,4-2.8,3.9
		c-6.8-0.4-13.5,1.1-20.2-3.2c-5.6-3.6-13.4-3.6-19.1,0.2C102.8,195.8,95.6,193.3,87.7,193.9z"/>
	<path class="st0" d="M82.5,53.2c10.2,0,19.5-0.1,28.7,0.1c1.2,0,3,1.7,3.3,3c0.8,3.2,1.1,6.6,1.1,9.9c0,1-2.1,2.7-3.2,2.7
		c-8.2,0.2-16.3,0.2-24.5,0c-1.3,0-3.3-1.4-3.6-2.5C83.5,62.4,83.1,58.2,82.5,53.2z"/>
	<path class="st0" d="M129.5,49.9c2.1-5.4,3.5-9.4,5.3-13.3c0.5-1,1.9-2.2,3-2.2c9.7-0.2,19.4-0.1,30.1-0.1
		c-2.6,5.4-4.8,9.9-7.1,14.4c-0.3,0.6-1.4,1.2-2.1,1.2C149.5,49.9,140.3,49.9,129.5,49.9z"/>
	<path class="st0" d="M209.1,125.1c2.3-4.6,4.6-9.2,7-13.6c0.4-0.8,2-1.4,3-1.4c8.8-0.1,17.6-0.1,26.9-0.1c0,5.7-1.9,10.2-4.5,14.3
		c-0.6,0.9-2.3,1.5-3.5,1.5c-9.2,0.1-18.3,0-27.5,0C210.1,125.9,209.7,125.4,209.1,125.1z"/>
	<path class="st0" d="M81.4,106.9c1-5,1.5-9,2.8-12.7c0.5-1.4,2.8-3,4.3-3.1c7.5-0.3,15-0.1,22.5-0.2c3,0,4.3,1.6,4,4.4
		c-0.4,3-0.8,6-1.7,8.8c-0.4,1.1-2,2.6-3.1,2.6C100.8,107,91.5,106.9,81.4,106.9z"/>
	<path class="st0" d="M144.1,107c-3.8,0-7.7,0-11.5,0c-2.8,0-4.1-1.3-4.6-4.1C125.9,91,125.8,91,138,91c5.2,0,10.3,0.1,15.5,0
		c2.8,0,4.4,0.9,4.6,4c0.2,2.6,0.6,5.3,1.2,7.9c0.7,3.3-0.8,4.2-3.7,4.2C151.8,107,147.9,107,144.1,107
		C144.1,107,144.1,107,144.1,107z"/>
	<path class="st0" d="M150.1,209.1c-3,7.8-5.8,9.9-12.8,9.9c-12.7,0-25.3,0-38,0c-6.3,0-9-2.4-10.7-10c8.7,0.9,17.4-2.6,25.6,2.8
		c7.2,4.7,7.3,4.5,14-0.5c1.2-0.9,2.5-2,3.9-2C137.9,209,143.7,209.1,150.1,209.1z"/>
	<path class="st0" d="M100,88c-2.7,0-5.3,0-8,0C85,88,85,88,85,80.7c0-1.2,0.1-2.3,0-3.5c-0.3-3.9,1.5-5.3,5.3-5.2
		c6.8,0.2,13.6,0.1,20.4,0c3.7-0.1,5.4,1.2,5.5,5.1C116.4,88,116.5,88,105.5,88C103.7,88,101.9,88,100,88z"/>
	<path class="st0" d="M142.3,69c-3.5,0-7,0.1-10.5,0c-1.3,0-3.6-0.6-3.6-0.9c0-3.9-0.1-7.8,0.7-11.6c0.3-1.4,2.6-3.2,4-3.3
		c7.7-0.3,15.3-0.2,23-0.1c2.5,0,3.7,1.2,3.3,3.8c-0.4,2.8-0.9,5.6-1.1,8.4c-0.2,2.7-1.7,3.8-4.2,3.8C150,69,146.1,69,142.3,69
		C142.3,69,142.3,69,142.3,69z"/>
	<path class="st0" d="M142.2,72.1c3.8,0,7.6,0,11.5,0c2.7,0,4,1.1,3.6,4c-0.2,1.5-0.2,3-0.1,4.5c0.5,7.5,0.6,7.5-7.1,7.5
		c-6.1,0-12.3-0.1-18.4,0c-3.1,0-4.4-1.2-4.6-4.4c-0.8-11.6-0.8-11.7,10.8-11.7C139.3,72,140.8,72,142.2,72.1
		C142.2,72,142.2,72,142.2,72.1z"/>
	<path class="st0" d="M63.3,231.4c-2.8,0.3-4.4,0.5-6,0.5c-12.8,0-25.6-0.1-38.4,0.1c-4.1,0-6.1-1-6.1-5.6c0-4.6,2.1-5.6,6.1-5.5
		c7,0.2,14,0.5,20.9-0.1c8-0.7,13.8,3.7,20.1,7C60.9,228.3,61.5,229.4,63.3,231.4z"/>
	<path class="st0" d="M146.5,231.5c-16.8,0-33.5,0-51.7,0c2.8-2.4,4.5-4,6.6-5.7c-1.1-1.4-2-2.6-3.3-4.4c1.7-0.2,3.1-0.4,4.5-0.4
		c10.1,0,20.3,0,30.4,0c2.5,0,4.4,0.1,6.2,2.8c1.8,2.7,5.2,4.4,7.9,6.5C146.8,230.7,146.7,231.1,146.5,231.5z"/>
	<path class="st0" d="M30.7,184c7.6,0,15.3-0.1,22.9,0.1c1.9,0.1,4.4,0.9,5.6,2.3c1.3,1.6,1.5,4.1,2.2,6.3c-1.8,0.5-3.7,1.3-5.5,1.3
		c-7.4,0.1-14.6,0.1-21.9-2.8c-8.1-3.2-16.7-0.5-25,1.3c-1.7,0.4-4.9,0.6-5.3-0.1c-0.8-1.8-1-4.4-0.2-6.2c0.6-1.2,3.1-2.1,4.8-2.2
		C15.8,183.8,23.3,184,30.7,184z"/>
	<path class="st0" d="M180.2,194.1c4-6.6,7.9-10.3,14.7-10.2c11.8,0.2,23.6,0.1,35.4,0.1c3,0,5.8-0.1,5.7,4.2
		c-0.1,4-2.9,3.7-5.6,3.9c-14.6,0.7-29.1,1.4-43.7,2C184.9,194.1,183.2,194.1,180.2,194.1z"/>
	<path class="st0" d="M191.7,209.1c0.9,7.8,0.8,7.6,8.3,5.8c10.4-2.5,20.6-2.1,31.7,3.5c-2.4,0.4-3.4,0.6-4.4,0.6
		c-17,0-34,0.1-50.9-0.1c-1.5,0-4.1-1.5-4.2-2.4c-0.2-2.8-0.5-6.8,3.4-7.2C180.9,208.7,186.4,209.1,191.7,209.1z"/>
	<path class="st0" d="M53.4,182c-8.9,0-17.9,0-26.8,0c-6.6,0-13.3,0.1-19.9-0.1c-1.1,0-2.2-1.1-3.2-1.6c0.9-1,1.6-2.6,2.7-3
		c14-4.1,28-5.4,42,0c2,0.8,3.9,2.1,5.8,3.2C53.8,181,53.6,181.5,53.4,182z"/>
	<path class="st0" d="M145,181.6c-16.4,0-32.4,0-48.4,0C101.9,171.7,136.8,171.1,145,181.6z"/>
	<path class="st0" d="M14.4,217c3.4,0,6.8,0,10.2,0c6-0.1,11.5-1.5,16-5.9c1.2-1.1,3.2-1.9,4.9-2c4.8-0.3,9.6-0.1,14.3-0.1
		c0,5-2.8,9.6-6.6,9.7c-12.9,0.3-25.8,0.1-38.8,0.1C14.4,218.2,14.4,217.6,14.4,217z"/>
	<path class="st0" d="M154.1,243.2c-11.8,2.9-20.9,0.5-32.7-9.3c4,0,6.8,0,9.6,0c4.6,0,9.3,0,13.9,0
		C151.3,234,153.3,236,154.1,243.2z"/>
	<path class="st0" d="M200.4,196c-2.5,3.7-4.2,6.3-6,8.9c-0.5,0.8-1.5,1.7-2.3,1.8c-5.7,0.1-11.4,0.1-17.2,0.1
		c0.5-8.6,2.7-10.7,10.2-10.7C190,196,194.7,196,200.4,196z"/>
	<path class="st0" d="M43.1,196.2c5.8,0,11.6-0.3,17.3,0.3c1,0.1,2.2,3.4,2.6,5.4c0.4,2.4-0.4,4.9-3.5,5c-4.3,0.2-8.7,0.3-13-0.1
		c-1.2-0.1-2.8-2-3.2-3.4C42.6,201.4,43.1,199.1,43.1,196.2z"/>
	<path class="st0" d="M40.8,234.1c8.1,0,15.4-0.3,22.6,0.1c3.8,0.2,4.3,4,4.2,6.9c-0.1,1.1-2.8,2.3-4.5,2.9c-1.5,0.5-3.3,0-4.9,0.1
		c-5.4,0.3-10.7,0.5-13-6.1C44.6,236.7,42.8,235.8,40.8,234.1z"/>
	<path class="st0" d="M113.7,233.9c-6.4,11.9-16.4,11-26.6,9.6c0.7-7.1,3.2-9.5,9.6-9.6C102.2,233.9,107.8,233.9,113.7,233.9z"/>
	<path class="st0" d="M106.2,206.9c-5.7,0-11,0.2-16.2-0.1c-3.9-0.2-3.7-3.6-3.9-6.4c-0.1-2.8,1.3-4.3,4.2-4.4c1.7,0,3.3-0.1,5-0.1
		C106.7,196.1,103.9,195.3,106.2,206.9z"/>
	<path class="st0" d="M195.6,180.2c6.2-1.4,12.3-3.3,18.6-4c6.1-0.7,12.3-0.3,18.4,0c1.1,0,2.1,1.9,3.2,2.9c-0.9,1-1.9,2.7-2.8,2.8
		c-12.4,0.2-24.8,0.1-37.1,0.1C195.7,181.3,195.7,180.8,195.6,180.2z"/>
	<path class="st0" d="M46.1,256C48.2,246,48.2,246,56.9,246c2,0,4,0,6,0c3-0.1,5.3,0.4,5.2,4.3c-0.1,3.4-1.1,5.9-5.1,5.8
		C57.5,256,52,256,46.1,256z"/>
	<path class="st0" d="M194.3,255.9c-6.3,0-12.2,0.3-18.1-0.1c-4-0.3-3.8-4.2-3.8-7c0-1,2.6-2.3,4.2-2.7c2.2-0.5,4.6-0.1,6.9-0.1
		C192.2,246,192.3,246,194.3,255.9z"/>
	<path class="st0" d="M222.1,234.2c6.3,0,12.6-0.4,18.7,0.3c1.2,0.1,2.5,4.1,2.8,6.4c0.1,0.8-2.4,2.6-4,3c-2.2,0.5-4.6,0.2-6.9,0.2
		C224.2,244,224.2,244,222.1,234.2z"/>
	<path class="st0" d="M133.4,207c0.7-3.5,1.2-5.8,1.6-8c0.6-3.3,3.2-3.2,5.4-2.9c4.1,0.7,9.4-2.6,12.3,2.3c2.5,4.3-0.7,8.5-5.8,8.6
		C142.6,207.1,138.4,207,133.4,207z"/>
	<path class="st0" d="M222.2,255.6c3.2-10.3,0.3-9.5,11.9-9.6c1.5,0,3-0.1,4.5,0c2.4,0.1,5.6-0.6,5.2,3.3c-0.3,3-0.4,6.6-5,6.7
		c-4.6,0-9.3,0-13.9,0C224.1,256,223.3,255.8,222.2,255.6z"/>
	<path class="st0" d="M181.1,244c-1.5,0-3-0.1-4.5,0c-3.5,0.2-5.6-0.8-5.7-4.9c-0.1-4.4,2.1-5.4,5.9-5.2c3.5,0.2,7,0,10.5,0.1
		c4.8,0.1,3.5,3.8,3.9,6.6c0.4,3.2-1.6,3.5-4,3.4C185,244,183,244,181.1,244z"/>
	<path class="st0" d="M94.2,256.1c-1.7,0-3.3-0.1-5,0c-3.5,0.2-5.3-1-5.2-4.8c0.1-3.4,1.3-5.4,5-5.3c3.5,0.1,7,0.1,10.5,0
		c3.1-0.1,4.1,1.1,4.2,4.4c0.2,4.5-1.1,6.2-5.5,5.7C96.9,255.9,95.5,256.1,94.2,256.1z"/>
	<path class="st0" d="M136.1,256c0-3.6,0-6.3,0-9.9c5.4,0,10.7-0.2,15.9,0.1c3.3,0.2,2.9,3,3,5.3c0,2.4-0.5,4.4-3.4,4.5
		C146.7,256,141.7,256,136.1,256z"/>
</g>
</svg>
