<?xml version="1.0" encoding="utf-8"?>
<!-- Generator: Adobe Illustrator 22.0.1, SVG Export Plug-In . SVG Version: 6.00 Build 0)  -->
<svg version="1.1" id="Ebene_1" xmlns="http://www.w3.org/2000/svg" xmlns:xlink="http://www.w3.org/1999/xlink" x="0px" y="0px"
	 viewBox="0 0 51.4 35" style="enable-background:new 0 0 51.4 35;" xml:space="preserve">
<style type="text/css">
	.st0{fill:#FFFFFF;}
</style>
<g>
	<path class="st0" d="M11.1,16.9h-3V7.8l-2.6,5.5L3,7.8v9.1H0V0.8h3l2.6,5.5l2.6-5.5h3V16.9z"/>
	<path class="st0" d="M20.2,16.9l-0.7-3.6h-3.1l-0.7,3.6h-3l3.2-16.1H20l3.2,16.1H20.2z M18.8,10.3l-1-4.8l-1,4.8H18.8z"/>
	<path class="st0" d="M34.9,16.9h-3.2l-1.9-4.5l-1.9,4.5h-3.2l3.5-8.3l-3.3-7.8H28l1.7,4l1.7-4h3.2l-3.4,7.8L34.9,16.9z"/>
	<path class="st0" d="M9.4,33.2l-1.9,1.7H1.9L0,33.2V20.5l1.9-1.7h5.5l1.9,1.7V33.2z M6.4,31.9V21.7H3v10.2H6.4z"/>
	<path class="st0" d="M20.1,33.2l-1.9,1.7h-5.4l-1.9-1.7V18.8h3v13.1h3.3V18.8h3V33.2z"/>
	<path class="st0" d="M30.4,21.7h-3v13.1h-3V21.7h-3v-3h8.9V21.7z"/>
</g>
<polygon class="st0" points="30.4,35 41.4,6 35.4,7 36.4,4 45.4,0 51.4,7 50.4,9 45.4,6 33.4,35 "/>
</svg>
