<?xml version="1.0" encoding="utf-8"?>
<!-- Generator: Adobe Illustrator 22.0.1, SVG Export Plug-In . SVG Version: 6.00 Build 0)  -->
<svg version="1.1" id="Ebene_1" xmlns="http://www.w3.org/2000/svg" xmlns:xlink="http://www.w3.org/1999/xlink" x="0px" y="0px"
	 viewBox="0 0 452.6 658" style="enable-background:new 0 0 452.6 658;" xml:space="preserve">
<style type="text/css">
	.st0{fill:#FFFFFF;}
	.st1{fill:#FFFFFF;stroke:#FFFFFF;stroke-width:7;stroke-linejoin:bevel;stroke-miterlimit:10;}
	.st2{fill:#FFFFFF;stroke:#FFFFFF;stroke-miterlimit:10;}
</style>
<path class="st0" d="M420.4,44.3L405.6,64c-19.2,25.7-49.6,34.3-55.5,35.8l-5.4,1.3l1.7,5.3c1.3,4,2,8.3,2,12.6
	c0,4.9-0.9,9.6-2.4,13.9c-0.1-0.1-0.2-0.1-0.3-0.2c-17.4-11-37.7-19.6-59.8-25.2c1.6-3.3,3.5-6.4,5.7-9.3c-1.1-0.6-2.3-1.2-3.4-1.9
	c1.5-2.2,3.3-4.2,5.3-6l6.1-5.5l-7.6-3.1C254.4,66.5,224.9,9.6,224.6,9L220,0l-4.6,9c-0.3,0.6-29.8,57.5-67.4,72.7l-7.6,3.1l6.1,5.5
	c4.8,4.4,8.4,10.1,10.4,16.5c-23.2,5.6-44.5,14.3-62.6,25.9c-0.1,0.1-0.2,0.1-0.3,0.2c-1.3-3.4-2-7.1-2.3-10.9
	c0.2-1.2,0.4-2.4,0.6-3.6c-0.2-0.1-0.5-0.1-0.7-0.2c0.1-4,0.8-7.9,2-11.8l1.7-5.3l-5.4-1.3c-6-1.5-36.4-10.2-55.6-35.8L19.5,44.3
	l38.8,164.1v40.7c12-1.1,24.2-2,36.5-2.8v3.5c2.7-0.9,5.7-1.8,8.9-2.7v-1.4c2.3-0.1,4.5-0.3,6.8-0.4v0.3c0.5-0.1,1.1-0.2,1.6-0.4
	c27.8-1.5,56.2-2.3,85.1-2.3c61.3,0,120.5,3.5,175.9,10c3.9,1.6,6.9,3.2,9.3,4.7V218c-0.2-0.2-0.5-0.4-0.8-0.7v-8.9l0.5-2.2
	c0.7,0.4,1.4,0.8,2,1.2l26.3-112.7c-0.8,0.7-1.6,1.4-2.4,2L420.4,44.3z M74.6,192.7C74.6,192.7,74.6,192.7,74.6,192.7
	C74.6,192.7,74.6,192.7,74.6,192.7L74.6,192.7z"/>
<g>
	<g>
		<g>
			<path class="st1" d="M99.2,357.4h1.6l23.4-60.8l22.1,0.6l0.6,68.8l3,41.3h-21.6l0.8-41.6l-1.8-42.1l-19.2,53l-19.7,1l-17.9-53.9
				l-1.4,42.1l1.1,41.6H50.4l2.2-38.9l1-68.6l25.4-4L99.2,357.4z"/>
			<path class="st1" d="M206.1,409.1c-9.6,0-17.7-2.9-24.2-8.8c-6.6-5.9-9.8-13.1-9.8-21.8l-1.6-78.4l23-4l-2.6,70.1
				c0,7.5,1.7,13.3,5.2,17.4c3.5,4.2,8.8,6.2,16.1,6.2s12.5-2,15.7-6.1s4.8-11,4.8-21l-1.9-62.7l22.4-4l-1.8,70.4
				c0,12.6-4.2,22.8-12.6,30.7C230.3,405.2,219.4,409.1,206.1,409.1z M188.1,272.8c0-3,1.1-5.7,3.4-8c2.2-2.3,4.9-3.5,7.8-3.5
				c3,0,5.3,0.8,6.9,2.5c1.6,1.7,2.4,4.1,2.4,7.4s-1.1,6.1-3.4,8.4c-2.2,2.3-4.8,3.5-7.8,3.5c-2.9,0-5.2-1-6.9-2.9
				C189,278.2,188.1,275.8,188.1,272.8z M214.1,272.8c0-3,1.1-5.7,3.4-8c2.2-2.3,4.9-3.5,8-3.5c6.1,0,9.1,3.1,9.1,9.3
				c0,3.6-1.1,6.6-3.3,9c-2.2,2.3-4.7,3.5-7.7,3.5c-2.9,0-5.3-1-7-2.9C214.9,278.2,214.1,275.8,214.1,272.8z"/>
			<path class="st1" d="M276.5,407.3l1.9-38.9l-1.9-68.3l22.7-4l-2.2,69.6l1.1,25.9l32.8-2.6l-1.8,18.2h-52.6V407.3z"/>
			<path class="st1" d="M344.6,407.3l1.9-38.9l-1.9-68.3l22.7-4l-2.2,69.6l1.1,25.9L399,389l-1.8,18.2h-52.6V407.3z"/>
			<path class="st1" d="M26.2,436.1l-1.8,52.2l40.8-51.8l16.3,10.9l-36.8,42.7l39,46.2l-20.5,12.8l-39-55.2L24,505.7l1.9,41.6H3.5
				l1.9-38.9l-1.9-68.3L26.2,436.1z"/>
			<path class="st1" d="M140.8,435.3c12.6,0,23,4.8,31.1,14.4s12.2,21.8,12.2,36.6c0,18.8-4.9,33.9-14.6,45.4
				c-9.7,11.5-22.5,17.3-38.2,17.3c-12.3,0-22.6-4.9-30.9-14.8c-8.3-9.9-12.5-22.1-12.5-36.6c0-18.1,5-33.1,14.9-44.8
				C112.8,441.2,125.4,435.3,140.8,435.3z M162.4,495.3c0-27-8.9-40.5-26.6-40.5c-8.1,0-14.5,3-19.1,9s-7,15-7,27s2.5,21.9,7.4,29.6
				c5,7.7,11.5,11.6,19.7,11.6s14.5-3.3,18.9-9.8C160.2,515.7,162.4,506.8,162.4,495.3z M112.6,412.8c0-3,1.1-5.7,3.4-8
				c2.2-2.3,4.9-3.5,7.8-3.5c3,0,5.3,0.8,6.9,2.5c1.6,1.7,2.4,4.1,2.4,7.4s-1.1,6.1-3.4,8.4c-2.2,2.3-4.8,3.5-7.8,3.5
				c-2.9,0-5.2-1-6.9-2.9C113.4,418.2,112.6,415.8,112.6,412.8z M138.5,412.8c0-3,1.1-5.7,3.4-8c2.2-2.3,4.9-3.5,7.8-3.5
				c6.2,0,9.3,3.1,9.3,9.3c0,3.6-1.1,6.6-3.3,9c-2.2,2.3-4.7,3.5-7.7,3.5c-2.9,0-5.3-1-7-2.9C139.4,418.2,138.5,415.8,138.5,412.8z"
				/>
			<path class="st1" d="M286.4,436.6l-2.1,69.1l1.8,38.1l-18.9,4l-47.7-77.1v35l2.2,41.6h-20l1.9-38.9l-1.9-71l19.2-1l47.5,78.2
				l-1.6-75.7L286.4,436.6z"/>
			<path class="st1" d="M334.7,436.1l-2.2,69.6l1.9,41.6H312l1.9-38.9l-1.9-68.3L334.7,436.1z"/>
			<path class="st1" d="M398.9,549.1c-14,0-25.2-4.7-33.8-14.1c-8.5-9.4-12.8-21.8-12.8-37.3c0-17.6,5.3-32.4,16-44.5
				s23.8-18.1,39.4-18.1c6.2,0,11.9,0.6,17.2,1.7c5.3,1.1,9,2.3,11.3,3.4l3.2,1.8l-9.3,22.2c-3.2-2.1-7.5-4.1-13-6
				c-5.4-1.9-10.2-2.8-14.4-2.8c-8.6,0-15.6,3-20.8,9.1c-5.2,6.1-7.8,14.1-7.8,24.2c0,13.5,2.5,24.1,7.4,31.7
				c5,7.6,11.9,11.4,20.7,11.4c5.8,0,11.2-0.8,16.3-2.4v-24.8h-20.6l1.6-16.2h38.4l-1.4,26.1l1.1,27.7
				C421.9,546.8,409,549.1,398.9,549.1z"/>
		</g>
	</g>
</g>
<g>
	<g>
		<path class="st2" d="M297.7,644.5H142.3c-6.6,0-12-5.4-12-12v-10c0-6.6,5.4-12,12-12h155.4c6.6,0,12,5.4,12,12v10
			C309.7,639.1,304.3,644.5,297.7,644.5z"/>
		<path class="st1" d="M297.7,644.5H142.3c-6.6,0-12-5.4-12-12v-10c0-6.6,5.4-12,12-12h155.4c6.6,0,12,5.4,12,12v10
			C309.7,639.1,304.3,644.5,297.7,644.5z"/>
	</g>
</g>
</svg>
