<!-- Generator: Adobe Illustrator 22.0.1, SVG Export Plug-In  -->
<svg version="1.1"
	 xmlns="http://www.w3.org/2000/svg" xmlns:xlink="http://www.w3.org/1999/xlink" xmlns:a="http://ns.adobe.com/AdobeSVGViewerExtensions/3.0/"
	 x="0px" y="0px" width="387.2px" height="52.6px" viewBox="0 0 387.2 52.6"
	 style="overflow:scroll;enable-background:new 0 0 387.2 52.6;" xml:space="preserve">
<style type="text/css">
	.st0{fill:#FFFFFF;}
</style>
<defs>
</defs>
<g>
	<path class="st0" d="M4,31.1v20.8H0V0.7h14.9c4.5,0,8.1,1.4,10.7,4.1c2.6,2.7,3.9,6.5,3.9,11.2c0,4.9-1.3,8.6-3.8,11.2
		c-2.5,2.6-6.1,3.9-10.9,3.9H4z M4,27.3h10.9c3.4,0,6-1,7.8-2.9c1.8-2,2.8-4.7,2.8-8.3s-0.9-6.4-2.8-8.5c-1.9-2.1-4.4-3.1-7.8-3.1H4
		V27.3z"/>
	<path class="st0" d="M57.2,37.6H38l-4.4,14.3h-4.2L45.8,0.7h3.7l16.3,51.2h-4.2L57.2,37.6z M39.2,33.8h16.9L47.6,6.4L39.2,33.8z"/>
	<path class="st0" d="M77.5,48.2h21.1v3.7H73.4V0.7h4V48.2z"/>
	<path class="st0" d="M130.8,37.6h-19.2l-4.4,14.3H103l16.3-51.2h3.7l16.3,51.2h-4.2L130.8,37.6z M112.7,33.8h16.9l-8.4-27.5
		L112.7,33.8z"/>
	<path class="st0" d="M147,51.9V0.7H159c5.6,0,9.9,1.8,13.2,5.3s4.9,8.4,5,14.7v10.7c0,6.4-1.6,11.4-4.9,15
		c-3.3,3.6-7.9,5.4-13.8,5.4H147z M151,4.5v43.7h7.8c4.6,0,8.1-1.4,10.6-4.2c2.5-2.8,3.8-6.9,3.9-12.1V21.1c0-5.3-1.2-9.3-3.7-12.2
		c-2.4-2.9-6-4.4-10.6-4.4H151z"/>
	<path class="st0" d="M192.8,51.9h-4V0.7h4V51.9z"/>
	<path class="st0" d="M237.8,51.9h-4L209.6,8.3v43.6h-4V0.7h4l24.2,43.7V0.7h4V51.9z"/>
	<path class="st0" d="M274,39.3c0-2.9-0.8-5.1-2.4-6.8c-1.6-1.6-4.7-3.2-9.1-4.7c-4.5-1.5-7.7-3.2-9.8-5c-2.7-2.4-4.1-5.6-4.1-9.6
		c0-3.9,1.3-7.1,4-9.6C255.3,1.2,258.7,0,263,0c4.4,0,7.9,1.4,10.7,4.3c2.8,2.9,4.1,6.5,4.1,11h-4c0-3.4-1-6.2-2.9-8.3
		c-1.9-2.1-4.6-3.2-7.9-3.2c-3.2,0-5.8,0.9-7.6,2.6c-1.9,1.7-2.8,4-2.8,6.8c0,2.6,0.9,4.7,2.6,6.3c1.8,1.6,4.6,3.1,8.4,4.4
		c3.8,1.3,6.8,2.6,8.7,4s3.4,3,4.4,4.8c0.9,1.9,1.4,4,1.4,6.5c0,4-1.4,7.2-4.1,9.7c-2.7,2.4-6.3,3.7-10.7,3.7c-3,0-5.7-0.6-8.2-1.8
		c-2.5-1.2-4.4-3-5.8-5.3c-1.4-2.3-2.1-5-2.1-8.2h4c0,3.6,1.1,6.4,3.3,8.5c2.2,2.1,5.1,3.1,8.8,3.1c3.2,0,5.8-0.9,7.8-2.6
		C273,44.5,274,42.2,274,39.3z"/>
	<path class="st0" d="M293.3,21.8h4.8c1.8,0,3.2-0.6,4-1.9c0.9-1.3,1.3-3,1.3-5.1c0-2-0.4-3.6-1.3-4.8c-0.9-1.1-2.1-1.7-3.5-1.7
		c-1.4,0-2.5,0.5-3.4,1.6c-0.9,1.1-1.3,2.4-1.3,4.1H284c0-2.7,0.6-5.1,1.8-7.2c1.2-2.1,3-3.8,5.2-5s4.7-1.8,7.4-1.8
		c4.7,0,8.4,1.3,11.1,3.9s4,6.2,4,10.7c0,2.3-0.6,4.5-1.8,6.5c-1.2,2-2.8,3.5-4.8,4.6c2.4,1,4.2,2.6,5.4,4.6
		c1.2,2.1,1.8,4.5,1.8,7.3c0,4.5-1.4,8.2-4.3,10.9s-6.7,4.1-11.4,4.1c-4.4,0-7.9-1.4-10.7-4.1s-4.1-6.3-4.1-10.7h9.9
		c0,1.8,0.5,3.4,1.4,4.6c1,1.2,2.2,1.9,3.7,1.9c1.7,0,3.1-0.6,4.1-1.9s1.5-3,1.5-5.1c0-5-2-7.6-5.9-7.6h-4.9V21.8z"/>
	<path class="st0" d="M344.6,0.2v8.4h-0.6c-3.7,0-6.7,1.1-8.9,3.4s-3.5,5.3-4,9.3c2.1-2.4,4.8-3.7,8-3.7c3.7,0,6.7,1.6,8.9,4.7
		s3.3,7.4,3.3,12.7c0,3.4-0.6,6.4-1.9,9.1c-1.3,2.7-3,4.8-5.3,6.3c-2.3,1.5-4.9,2.2-7.8,2.2c-4.6,0-8.4-1.9-11.2-5.6
		s-4.2-8.7-4.2-15v-3.7c0-5.6,0.9-10.6,2.7-14.8c1.8-4.2,4.3-7.5,7.7-9.8s7.2-3.4,11.7-3.5H344.6z M336.1,25.8
		c-1.3,0-2.3,0.4-3.2,1.2c-0.9,0.8-1.5,1.8-1.9,3v3.6c0,3.6,0.5,6.3,1.4,8.1c1,1.8,2.2,2.7,3.8,2.7c1.6,0,2.9-0.9,3.8-2.6
		s1.4-3.9,1.4-6.6c0-2.7-0.5-5-1.5-6.7S337.7,25.8,336.1,25.8z"/>
	<path class="st0" d="M358.3,26.7l2.5-26h24.8v8.5H369l-0.9,11c1.9-1.3,3.9-1.9,5.9-1.9c4.2,0,7.5,1.5,9.8,4.5
		c2.3,3,3.4,7.2,3.4,12.7c0,5.1-1.4,9.3-4.1,12.4c-2.7,3.1-6.4,4.7-10.9,4.7c-2.7,0-5.2-0.6-7.5-1.9s-4.1-3.1-5.4-5.3
		c-1.3-2.3-2-4.9-2-7.7h9.8c0.2,2.1,0.7,3.8,1.6,5c0.9,1.2,2,1.8,3.4,1.8c1.6,0,2.9-0.8,3.8-2.4s1.3-3.9,1.3-7.1
		c0-3-0.5-5.2-1.6-6.7c-1.1-1.5-2.6-2.3-4.5-2.3c-1.9,0-3.3,0.6-4.4,1.9l-0.6,0.9L358.3,26.7z"/>
</g>
</svg>
