<!-- Generator: Adobe Illustrator 22.0.1, SVG Export Plug-In  -->
<svg version="1.1"
	 xmlns="http://www.w3.org/2000/svg" xmlns:xlink="http://www.w3.org/1999/xlink" xmlns:a="http://ns.adobe.com/AdobeSVGViewerExtensions/3.0/"
	 x="0px" y="0px" width="349.1px" height="89.5px" viewBox="0 0 349.1 89.5"
	 style="overflow:scroll;enable-background:new 0 0 349.1 89.5;" xml:space="preserve">
<style type="text/css">
	.st0{fill:#FFFFFF;}
</style>
<defs>
</defs>
<g>
	<path class="st0" d="M84.9,28.6l10.7-1.7v11.2h12.9V47H95.6v13.3c0,2.3,0.4,4.1,1.2,5.4c0.8,1.3,2.4,2,4.8,2c1.2,0,2.3-0.1,3.6-0.3
		c1.2-0.2,2.3-0.5,3.3-0.9l1.5,8.4c-1.3,0.5-2.7,1-4.3,1.4s-3.5,0.6-5.8,0.6c-2.9,0-5.4-0.4-7.3-1.2c-1.9-0.8-3.5-1.9-4.6-3.3
		c-1.2-1.4-2-3.1-2.4-5.1c-0.5-2-0.7-4.2-0.7-6.7V28.6z"/>
	<path class="st0" d="M149.1,38.1c-2.2,7.3-4.4,14.1-6.8,20.5c-2.4,6.4-4.9,12.6-7.7,18.6c-1,2.2-2,4-3,5.5c-1,1.5-2.1,2.8-3.3,3.7
		c-1.2,1-2.6,1.7-4.1,2.2c-1.5,0.5-3.3,0.7-5.3,0.7c-1.7,0-3.2-0.2-4.7-0.5s-2.6-0.7-3.5-1l1.9-8.6c1.1,0.4,2.1,0.6,3,0.8
		c0.9,0.1,1.8,0.2,2.7,0.2c1.9,0,3.4-0.5,4.4-1.5c1-1,1.9-2.5,2.6-4.3c-2.5-4.8-4.9-10.2-7.3-16.2s-4.8-12.7-6.9-20.1h11.4
		c0.5,1.9,1,3.9,1.7,6.1c0.7,2.2,1.3,4.4,2.1,6.6c0.7,2.2,1.5,4.4,2.2,6.5c0.7,2.1,1.5,4,2.1,5.8c0.6-1.7,1.3-3.6,2-5.8
		c0.7-2.1,1.3-4.3,2-6.5s1.3-4.4,1.9-6.6c0.6-2.2,1.1-4.2,1.6-6.1H149.1z"/>
	<path class="st0" d="M173.8,55.9c0-3.5-0.4-5.9-1.3-7.3c-0.9-1.4-2.4-2.2-4.6-2.2c-0.7,0-1.4,0-2.1,0.1c-0.7,0.1-1.4,0.2-2.1,0.3
		v29.2H153V39.4c0.9-0.2,2-0.5,3.2-0.8c1.2-0.3,2.5-0.5,3.9-0.7c1.4-0.2,2.8-0.4,4.2-0.5c1.4-0.1,2.9-0.2,4.2-0.2c2.7,0,5,0.3,6.7,1
		c1.7,0.7,3.1,1.5,4.2,2.5c1.5-1.1,3.3-2,5.3-2.6c2-0.6,3.8-0.9,5.5-0.9c3,0,5.5,0.4,7.5,1.3c1.9,0.8,3.5,2,4.6,3.6
		c1.2,1.5,1.9,3.4,2.4,5.5c0.4,2.1,0.6,4.5,0.6,7.1v21.4h-10.7V55.9c0-3.5-0.4-5.9-1.3-7.3c-0.9-1.4-2.4-2.2-4.6-2.2
		c-0.6,0-1.4,0.1-2.4,0.4s-1.9,0.6-2.6,1.1c0.3,1.1,0.6,2.3,0.6,3.5c0.1,1.2,0.1,2.5,0.1,3.9v20.7h-10.7V55.9z"/>
	<path class="st0" d="M211.5,57.3c0-3.4,0.5-6.3,1.5-8.8c1-2.5,2.4-4.6,4.1-6.3c1.7-1.7,3.6-3,5.8-3.8c2.2-0.9,4.4-1.3,6.7-1.3
		c5.4,0,9.6,1.6,12.7,4.9c3.1,3.3,4.7,8.1,4.7,14.5c0,0.6,0,1.3-0.1,2.1c0,0.7-0.1,1.4-0.1,2h-24.3c0.2,2.2,1.3,4,3.1,5.3
		c1.8,1.3,4.3,1.9,7.3,1.9c2,0,3.9-0.2,5.8-0.5c1.9-0.4,3.4-0.8,4.6-1.3l1.4,8.7c-0.6,0.3-1.3,0.6-2.3,0.9c-1,0.3-2,0.5-3.2,0.8
		c-1.2,0.2-2.4,0.4-3.8,0.5s-2.7,0.2-4,0.2c-3.4,0-6.4-0.5-8.9-1.5s-4.6-2.4-6.3-4.1c-1.7-1.8-2.9-3.8-3.7-6.2
		C211.9,62.7,211.5,60.1,211.5,57.3z M236.7,53.2c0-0.9-0.2-1.8-0.5-2.7c-0.3-0.9-0.7-1.6-1.2-2.3c-0.6-0.7-1.3-1.2-2.1-1.7
		c-0.8-0.4-1.9-0.6-3.1-0.6c-1.2,0-2.2,0.2-3.1,0.6c-0.9,0.4-1.6,0.9-2.2,1.6c-0.6,0.7-1,1.5-1.3,2.3c-0.3,0.9-0.5,1.8-0.7,2.7
		H236.7z"/>
	<path class="st0" d="M268.6,76.7c-3.1,0-5.7-0.4-7.6-1c-1.9-0.6-3.5-1.5-4.6-2.6c-1.1-1.1-1.9-2.5-2.3-4.1
		c-0.4-1.6-0.6-3.4-0.6-5.4V21.8l10.7-1.7v41.3c0,1,0.1,1.8,0.2,2.6c0.1,0.8,0.4,1.4,0.8,1.9c0.4,0.5,1,1,1.8,1.3
		c0.8,0.3,1.8,0.6,3.1,0.6L268.6,76.7z"/>
	<path class="st0" d="M309.9,56.9c0,3-0.4,5.7-1.3,8.2c-0.9,2.5-2.1,4.6-3.7,6.3c-1.6,1.8-3.6,3.1-5.9,4.1c-2.3,1-4.8,1.4-7.7,1.4
		c-2.8,0-5.3-0.5-7.6-1.4c-2.3-1-4.2-2.3-5.9-4.1c-1.6-1.8-2.9-3.9-3.8-6.3c-0.9-2.5-1.4-5.2-1.4-8.2c0-3,0.5-5.7,1.4-8.1
		c0.9-2.4,2.2-4.5,3.9-6.3s3.6-3.1,5.9-4c2.3-1,4.8-1.4,7.5-1.4c2.7,0,5.2,0.5,7.5,1.4c2.3,1,4.2,2.3,5.9,4c1.6,1.7,2.9,3.8,3.8,6.3
		C309.4,51.3,309.9,54,309.9,56.9z M299,56.9c0-3.3-0.7-5.9-2-7.8c-1.3-1.9-3.2-2.8-5.7-2.8s-4.3,0.9-5.7,2.8c-1.3,1.9-2,4.5-2,7.8
		s0.7,5.9,2,7.9s3.2,2.9,5.7,2.9s4.3-1,5.7-2.9S299,60.3,299,56.9z"/>
	<path class="st0" d="M349.1,71.2c0,6.2-1.6,10.8-4.7,13.8c-3.1,3-8,4.5-14.6,4.5c-2.3,0-4.6-0.2-6.9-0.6c-2.3-0.4-4.4-0.9-6.4-1.6
		l1.9-9c1.7,0.7,3.4,1.2,5.3,1.6c1.8,0.4,3.9,0.6,6.3,0.6c3.1,0,5.2-0.7,6.5-2c1.3-1.3,1.9-3.1,1.9-5.2v-1.4
		c-1.2,0.5-2.3,0.9-3.6,1.2c-1.2,0.3-2.6,0.4-4,0.4c-5.2,0-9.2-1.5-12-4.6c-2.8-3.1-4.2-7.4-4.2-13c0-2.8,0.4-5.3,1.3-7.6
		c0.9-2.3,2.1-4.2,3.8-5.9c1.7-1.6,3.7-2.9,6.1-3.8c2.4-0.9,5.1-1.3,8.1-1.3c1.3,0,2.6,0.1,4,0.2c1.4,0.1,2.7,0.3,4.1,0.5
		c1.3,0.2,2.6,0.4,3.9,0.7c1.2,0.3,2.3,0.5,3.3,0.8V71.2z M325.5,55.8c0,6,2.4,9,7.3,9c1.1,0,2.1-0.1,3.1-0.4c1-0.3,1.8-0.6,2.4-1
		V46.2c-0.5-0.1-1.2-0.2-1.9-0.3s-1.6-0.1-2.5-0.1c-2.8,0-4.9,0.9-6.3,2.8C326.2,50.5,325.5,52.9,325.5,55.8z"/>
	<g>
		<g>
			<path class="st0" d="M1.4,76.2c0-17.3,0-34.2,0-51C4.9,24,53.1,23.7,59,24.9c0,16.9,0,33.9,0,51.3C39.9,76.2,21,76.2,1.4,76.2z
				 M52.7,70c0-13.4,0-26.2,0-39.2c-15.1,0-29.9,0-44.7,0c0,13.3,0,26.2,0,39.2C23,70,37.7,70,52.7,70z"/>
			<path class="st0" d="M60.4,77.7H0V24.1l1-0.3c3.7-1.3,52.2-1.6,58.3-0.3l1.2,0.2V77.7z M2.9,74.8h54.7V26.1
				c-9-1-47.6-0.6-54.7,0.2V74.8z M54.1,71.5H6.5V29.4h47.6V71.5z M9.4,68.6h41.8V32.3H9.4V68.6z"/>
		</g>
		<g>
			<path class="st0" d="M13.1,1.4c8.3,0,16.2,0,24.5,0c3.1,3.2,6.4,6.7,10,10.5c0,2.6,0,5.8,0,9.4c-1.9,0-3.7,0-5.8,0
				c-0.2-2.2-0.3-4.4-0.5-6.9c-2.2-1.9-4.5-4-7.5-6.7c-4,0-9.1,0-14.7,0c0,4.6,0,9,0,13.7c-2.2,0-3.9,0-6,0
				C13.1,15,13.1,8.5,13.1,1.4z"/>
			<path class="st0" d="M20.5,22.9h-8.8V0h26.6l10.8,11.4v11.5h-8.6l-0.6-7.7l-6.7-5.9H20.5V22.9z M14.5,20.1h3.1V6.3h16.7l8.4,7.4
				l0.5,6.2h3.1v-7.4L37,2.9H14.5V20.1z"/>
		</g>
		<g>
			<path class="st0" d="M15.7,59.5c4.4-3.6,8.2-6.7,11.5-9.4c0-5.4,0-9.5,0-14.1c2-0.1,3.7-0.2,5.8-0.3c0,5.5,0,10.6,0,16.2
				c-3.8,3.6-7.9,7.6-12.4,12C19.4,62.9,18.1,61.7,15.7,59.5z"/>
			<path class="st0" d="M20.6,65.9l-7.1-6.5l12.2-10V34.7l8.7-0.5v18.4L20.6,65.9z M17.9,59.5l2.6,2.4l11-10.6V37.3l-2.9,0.2v13.4
				L17.9,59.5z"/>
		</g>
	</g>
</g>
</svg>
