	<svg
			xmlns="http://www.w3.org/2000/svg"
			width="151.289"
			height="29.187"
			viewBox="0 0 151.289 29.187"
		>
			<path
				id="LogoPath"
				data-name="LogoPath"
				d="M16.92-.78c2.43-1.74,4.92-5.43,6.96-11.46.57-2.04-4.08-3.6-4.05-3.39.18,1.62-2.07,8.16-5.94,12.33-.03-3.93,2.64-7.35,1.65-9.96a4.219,4.219,0,0,0-4.17-2.37v.09c.21,1.59-1.98,7.71-5.58,11.85.12-3.78,2.61-7.05,1.65-9.57-.42-1.08-2.37-1.86-4.68-1.8C3.51-10.5.87-6.45,1.2-2.91A2.878,2.878,0,0,0,2.19-.69C3.96.75,5.16.39,6.96-.78A13.413,13.413,0,0,0,9.84-3.81c-.03.96.09,2.46.81,3.12C12.27.81,15.51.24,16.92-.78Zm10.5-2.01c-1.65,0-1.35-3.09-.39-5.22.75-1.59,2.64-4.2,4.44-4.23,1.65,0,1.35,2.97.36,5.13C31.11-5.55,29.22-2.82,27.42-2.79ZM26.4.27A11.559,11.559,0,0,0,37.35-7.92c1.14-4.23-1.05-7.53-4.86-7.38A11.49,11.49,0,0,0,21.54-7.14C20.4-2.88,22.41.48,26.4.27ZM48.24-10.71c-1.14,3.48-2.91,5.94-2.94,8.4C45.27.42,47.91.99,50.91-.24c-1.35-3.36,4.53-11.1,3.6-13.98-.39-1.23-2.37-1.47-4.41-.51a22.244,22.244,0,0,0-5.52,3.54,4.813,4.813,0,0,0,.27-2.34c-.24-.99-2.22-1.71-4.68-1.8C40.23-12,36.03-5.43,36-2.31,35.97.39,38.61.96,41.61-.24c-.51-1.26-.21-3.12.6-4.92C44.1-9.27,48.75-12.27,48.24-10.71ZM62.82-3.75a6.2,6.2,0,0,0-.24,1.44C62.55.42,65.19.96,68.19-.24,66.84-3.63,74.16-16.26,73.5-19.2c-.24-.99-2.22-1.71-4.68-1.8.03,1.44-1.11,4.5-2.43,7.8-.63-1.59-1.92-2.1-3.75-2.1-4.47,0-8.49,3.93-9.63,8.16S53.52.45,57.18.3C59.16.24,61.11-1.5,62.82-3.75Zm.39-8.49c1.5,0,2.22.66,1.86,1.8-1.74,3.27-4.08,6.6-5.58,6.6-1.35,0-1.59-1.89-1.08-3.72C59.01-9.6,60.93-12.21,63.21-12.24ZM78.39-3.36c-1.65,0-2.67-.66-3.03-1.8,3.45.15,8.49-1.53,9.9-4.47,1.47-3.06-.69-5.82-4.56-5.67A11.116,11.116,0,0,0,70.05-7.14C68.91-2.88,71.07.54,76.47.27c5.07,0,8.22-4.92,6.81-5.55A7.32,7.32,0,0,1,78.39-3.36Zm1.32-8.88c.84,0,1.35.36,1.35,1.2,0,2.16-3.51,2.88-5.46,3.12C76.23-9.54,77.67-12.21,79.71-12.24ZM93.42-10.8c1.62,0,1.5,2.43,1.5,2.43-.03.48,4.41-1.47,4.29-4.26-.06-1.71-1.32-2.76-3.3-2.67a4.294,4.294,0,0,0-3.42,1.86c-.24-.99-2.25-1.8-4.71-1.89.06,3.33-4.14,9.9-4.17,13.02C83.58.39,86.22.96,89.22-.24,88.5-2.07,90.99-10.74,93.42-10.8ZM103.86,4.35c-.03,2.7,2.61,3.27,5.61,2.07-1.35-3.39,5.85-13.89,5.76-19.86,0-.99-2.37-1.86-4.83-1.95a7.009,7.009,0,0,1-.36,2.1c-.63-1.5-1.89-2.01-3.69-2.01-4.47,0-8.49,3.93-9.63,8.16S97.2.45,100.89.3c2.31-.06,4.59-2.43,6.51-5.28C105.69-.96,103.89,2.67,103.86,4.35Zm3.06-16.59c1.68,0,2.37.81,1.71,2.19-1.65,3.15-3.99,6.21-5.43,6.21-1.35,0-1.59-1.89-1.08-3.72C102.84-10.08,105-12.21,106.92-12.24Zm6.27,9.09c-.03,2.19,1.47,3.48,3.72,3.48,1.92,0,3.78-1.62,5.49-4.05a6.424,6.424,0,0,0-.21,1.41C122.16.39,124.8.96,127.8-.24c-1.35-3.39,3.93-10.35,3.24-13.29-.21-.99-2.22-1.71-4.68-1.8-.42,3.51-3.87,11.13-7.14,11.13-1.62,0,2.61-5.1,2.64-8.49.03-2.73-2.61-3.3-5.61-2.07C117.6-11.4,113.22-6.45,113.19-3.15Zm19.89-12.18c.06,3.33-4.14,9.9-4.17,13.02-.03,2.7,2.61,3.27,5.61,2.07-1.35-3.39,3.9-10.35,3.24-13.29C137.52-14.52,135.54-15.24,133.08-15.33Zm6.06-6.42a3.249,3.249,0,0,0-4.29,1.08c-1.14,1.47-.99,3,.45,3.84a3.261,3.261,0,0,0,4.26-1.11C140.7-19.41,140.55-20.94,139.14-21.75Zm1.62,6.72a3.586,3.586,0,0,0-2.07,5.37,12.217,12.217,0,0,1,6.81-2.31c-2.58,2.37-5.43,6.33-11.13,10.14,0,1.68,2.55,2.43,4.32,1.98,4.98-.75,6.93-.45,11.49.18.36-1.35.3-4.89-2.82-4.95-1.11-.03-2.37.96-3.81,1.59,2.76-2.73,4.86-6.36,8.91-9.48C150.12-15.27,143.13-15.78,140.76-15.03Z"
				transform="translate(-1.171 22.17)"
				fill="#FFF"
			/>
		</svg>